<svg xmlns="http://www.w3.org/2000/svg" viewBox="0 0 244.81 272.29"><defs><style>.cls-1{fill:#20a091;}</style></defs><title>music</title><g id="Layer_2" data-name="Layer 2"><g id="Layer_1-2" data-name="Layer 1"><g id="YSnurC.tif"><path class="cls-1" d="M243.64,0h1.07c0,1.06.1,2.12.1,3.19V192c0,1.06,0,2.13-.05,3.19a35.86,35.86,0,0,1-8.24,22c-16.73,20.81-50.85,23.22-70.46,5-17.68-16.39-17.27-41.74.93-57.05,16.17-13.61,40.73-15.24,58.59-3.9.77.48,1.55.94,2.4,1.46V60.51c-.83.13-1.44.18-2,.32Q160.37,77.06,94.78,93.23c-2.5.61-3.09,1.65-3.09,4.1q.12,66.07,0,132.15a45.66,45.66,0,0,1-.46,7.94c-2.62,14.66-11.48,24.48-24.72,30.37-4.85,2.16-10.27,3-15.42,4.5H41a12.55,12.55,0,0,0-1.77-.48,48.4,48.4,0,0,1-21.88-8.28c-21-14.3-23.31-41.46-5.05-59.08C27.6,189.7,54,187.35,72.48,199.08l2.69,1.68V42.1c.68-.23,1.17-.43,1.68-.56Q151.18,23.17,225.51,4.77C231.58,3.27,237.6,1.59,243.64,0Z"/></g></g></g></svg>