<svg xmlns="http://www.w3.org/2000/svg" viewBox="0 0 249.39 238.33"><defs><style>.cls-1{fill:#ff0;}</style></defs><title>Asset 7</title><g id="Layer_2" data-name="Layer 2"><g id="Layer_1-2" data-name="Layer 1"><path class="cls-1" d="M135.76,8l21.46,66a11.64,11.64,0,0,0,11.07,8h69.43c11.28,0,16,14.43,6.84,21.06L188.39,144a11.63,11.63,0,0,0-4.23,13l21.46,66c3.48,10.72-8.79,19.64-17.91,13l-56.18-40.81a11.65,11.65,0,0,0-13.68,0L61.68,236.05c-9.12,6.63-21.4-2.29-17.91-13l21.45-66A11.63,11.63,0,0,0,61,144L4.82,103.18C-4.3,96.55.39,82.12,11.66,82.12H81.1a11.64,11.64,0,0,0,11.07-8L113.62,8C117.11-2.68,132.28-2.68,135.76,8Z"/></g></g></svg>