<svg xmlns="http://www.w3.org/2000/svg" viewBox="0 0 490.3 490.45"><defs><style>.cls-1{fill:#fff;}</style></defs><title>Forrest</title><g id="Layer_2" data-name="Layer 2"><g id="Layer_1-2" data-name="Layer 1"><path class="cls-1" d="M57,74.6A21.7,21.7,0,0,0,75.7,86c8.5-.2,14.2-3.9,17.6-10.4,4.1-7.3,19.7-33.2,37.3-33.2a20.7,20.7,0,1,0,0-41.4C106.8,1,88.7,14.8,76.3,28.7,63.8,14.5,45.1,0,20.7,0a20.7,20.7,0,0,0,0,41.4C37.3,41.5,52.9,66.3,57,74.6Z"/><path class="cls-1" d="M469.5,15.5c-24.6,0-43.1,14.4-55.5,28.7-12.5-14.6-31.5-29.8-56.4-29.8a20.7,20.7,0,0,0,0,41.4c17.6,0,33.2,24.9,37.3,33.2a21.7,21.7,0,0,0,18.7,11.4c7.6-.1,13.8-3.7,18.7-10.4,4.1-7.3,19.7-33.2,37.3-33.2a20.74,20.74,0,0,0,20.7-20.7A20.94,20.94,0,0,0,469.5,15.5Z"/><path class="cls-1" d="M339.37,233.87h66c17.8,0,27.2-21.1,15.3-34.4L247.7,8a22.44,22.44,0,0,0-31.1,0L44.2,198.27c-12,13.3-2.6,34.6,15.3,34.6h66l-89.7,99.22c-12.12,13.33-2.6,34.78,15.44,34.78H211.44V469.2a21,21,0,1,0,42,.5V366.87H415.88c17.51,0,26.72-20.54,14.88-33.37Zm-243.27,92L186.9,227c12.33-13.43,2.81-35.08-15.43-35.08h-67L232.1,51.66,359.89,191.87H292.34c-17.94,0-27.37,21.25-15.34,34.58l90.1,99.42Z"/></g></g></svg>