<svg xmlns="http://www.w3.org/2000/svg" viewBox="0 0 488.85 488.97"><defs><style>.cls-1{fill:#fff;}</style></defs><title>Night</title><g id="Layer_2" data-name="Layer 2"><g id="Layer_1-2" data-name="Layer 1"><path class="cls-1" d="M424.1,337.4a20.5,20.5,0,0,0,1-21.87c-4.19-7.29-11.38-11.38-19.77-10.38-71.19,7.08-134.49-31.16-165-84.18H467.54c10.63,0,19.89-7.85,20.95-18.42A20.59,20.59,0,0,0,468.1,180H222.83A172.74,172.74,0,0,1,251.29,32.4a20.54,20.54,0,0,0,1-21.87C248.09,3.24,240.9-.85,232.52.15c-29.06,3.09-57.12,11.38-83.08,26C99.62,54.17,64.27,98.8,48.7,153.91c-14,52.72-7.39,107.64,17.77,157.06H21.06C10.43,311,1.17,318.83.11,329.4A20.59,20.59,0,0,0,20.5,352H96.3C145.33,415,309.28,480.18,424.1,337.4ZM157.73,352H245a21,21,0,1,0,.28-42H113.36A103.15,103.15,0,0,1,104,294.39C74.19,248.82,56.7,103.53,194.4,49A209.78,209.78,0,0,0,181,179H129.33a21,21,0,1,0-.28,42H194.6c2.8,6.3,5.89,12.59,9.29,18.69,33.28,58.26,91.53,96.73,157,106C283.33,399.44,207.89,384.85,157.73,352Z"/><path class="cls-1" d="M468.05,447H129.32a21,21,0,1,0-.47,42H467.6c9.45,0,19.07-7.5,20.85-16.78A21,21,0,0,0,468.05,447Z"/><path class="cls-1" d="M304.75,42.14c31.2,14.6,54.1,46.8,58.3,81.2a19.25,19.25,0,0,0,19.8,17.7c14.2-.3,21.9-11.4,20.8-22.9-4.2-33.3,22.9-67.6,56.2-72.8,10.4-1,18.7-11.4,16.6-22.9-1-10.4-11.4-18.7-22.9-16.6-30.2,4.1-57.3,23.8-73.9,49.8-14.6-20.8-34.3-38.5-57.2-49.9-10.4-5.2-21.9-1-27.1,9.4S294.25,36.94,304.75,42.14Z"/></g></g></svg>