<svg xmlns="http://www.w3.org/2000/svg" viewBox="0 0 484.91 488.96"><defs><style>.cls-1{fill:#fff;}</style></defs><title>Ocean</title><g id="Layer_2" data-name="Layer 2"><g id="Layer_1-2" data-name="Layer 1"><path class="cls-1" d="M6.36,483.85c-8.3-7.3-8.3-20.8-1-29.1l39.5-41.6c13.5-13.5,31.2-21.8,49.9-21.8a67.18,67.18,0,0,1,49.9,21.8,29.58,29.58,0,0,0,41.6,0c13.7-14.7,33.7-24.2,52-23.9h0a67.18,67.18,0,0,1,49.9,21.8s14,17.8,28.1,16.6h0c14,.8,26-14.6,26-14.6,13.5-13.5,31.2-21.8,49.9-21.8a67.18,67.18,0,0,1,49.9,21.8l37.5,38.5a21,21,0,0,1-1,29.1c-8.3,8.3-20.8,7.3-29.1-1L412,441.15c-11.5-13.4-32.5-9.6-42.7,5.2-13.5,13.5-31.2,21.8-49.9,21.8h0c-18.3.6-40.9-8.2-57.2-29.1-9.9-11.4-28.7-13.4-41.6,0-11.5,13.6-33.4,24.4-52,23.9s-37.5-7.3-49.9-21.8a29.58,29.58,0,0,0-41.6,0l-39.5,41.6C31.36,487,20.66,493.75,6.36,483.85Z"/><path class="cls-1" d="M244.66,349.65c-101-6.7-130-87.4-130-134.2,0-67.6,102-193.5,114.4-208.1,8.3-10.2,24-9.4,31.2,0,11.4,14.6,118.2,139.5,114.4,208.1C367.86,337.55,265.36,351,244.66,349.65Zm0-296.5c-39.5,51-86.3,127-88.4,162.3-1.8,30.9,24.3,93.4,88.4,93.4,14.4,0,84.9-9.6,89.5-92.4C333.06,180.05,284.16,104.15,244.66,53.15Z"/></g></g></svg>