<svg xmlns="http://www.w3.org/2000/svg" viewBox="0 0 488.7 490"><defs><style>.cls-1{fill:#fff;}</style></defs><title>Calm Night</title><g id="Layer_2" data-name="Layer 2"><g id="Layer_1-2" data-name="Layer 1"><path class="cls-1" d="M25.11,351.9C71.51,434.5,151.71,490,246.21,490c110.6,0,217.6-82,241.9-197.3,4.1-17.8-13.7-30.3-31.2-20.8-93.3,62.7-232,58-286.6-42.6-30.1-60.2-10-134.6,45.7-193.1C227.81,24,220-3.2,197.41,2-33.59,70.9-16.39,278.1,25.11,351.9Zm221.1,97.7c-78.9,0-149.5-44.6-184.8-115.3-24.9-48.8-47.6-196.3,81-267.9-33.2,59.2-38.8,126.4-9.3,181.7,81.6,153.5,273.6,101.1,299,84.1C393.41,407.5,330.91,445.8,246.21,449.6Z"/><path class="cls-1" d="M364.61,97.6c6.2-14.5,31.2-55,61.3-55a20.8,20.8,0,0,0,0-41.6c-35.6,0-62.5,25.6-78.9,47.7C330.81,26.4,303.81,0,267,0a20.8,20.8,0,1,0,0,41.6c30.1,0,54,39.5,61.3,55,3.1,8.3,11.4,12.5,18.7,12.5C355.61,108.6,362,105.3,364.61,97.6Z"/><path class="cls-1" d="M405.11,246c6.2-14.5,31.2-55,61.3-55a20.8,20.8,0,0,0,0-41.6c-35.6,0-62.5,25.6-78.9,47.7-16.2-22.3-43.2-48.7-80-48.7a20.8,20.8,0,0,0,0,41.6c30.1,0,54,39.5,61.3,55,3.1,8.3,11.4,12.5,18.7,12.5C396.61,256.9,402.51,253.1,405.11,246Z"/></g></g></svg>