<svg xmlns="http://www.w3.org/2000/svg" viewBox="0 0 491.27 489.22"><defs><style>.cls-1{fill:#fff;}</style></defs><title>Ocean Birds</title><g id="Layer_2" data-name="Layer 2"><g id="Layer_1-2" data-name="Layer 1"><path class="cls-1" d="M480.79,451.68l-35.4-25c-26.4-18.9-71.6-20.8-100.9,4.2-12.5,8.3-31.2,8.3-43.7,0-28.5-24-72.7-23.2-97.8-6.2-12.4,8.4-31.2,8.3-43.7,0-31.7-23.8-72.5-23.5-97.8-6.2l-52,33.3c-9.4,6.2-12.5,18.7-6.2,28.1,4.2,6.2,17,13.7,28.1,6.2l52-33.3c14.5-9.2,33.5-9.7,54.1,6.2,26,16.6,61.4,16.6,87.4,0,12.5-8.3,31.2-8.3,43.7,0,33.1,22.8,69.6,26.3,108.2,0,13.5-8.3,32.3-8.3,45.8,1L458,485c9.4,6.2,21.9,4.2,28.1-5.2A20.31,20.31,0,0,0,480.79,451.68Z"/><path class="cls-1" d="M480.79,340.28l-35.4-25c-26.4-18.9-71.6-20.8-100.9,4.2-12.5,8.3-31.2,8.3-43.7,0-28.5-24-72.7-23.2-97.8-6.2-12.4,8.4-31.2,8.3-43.7,0-31.7-23.8-72.5-23.5-97.8-6.2l-52,33.3c-9.4,6.2-12.5,18.7-6.2,28.1,4.2,6.2,17,13.7,28.1,6.2l52-33.3c14.5-9.2,33.5-9.7,54.1,6.2,26,16.6,61.4,16.6,87.4,0,12.5-8.3,31.2-8.3,43.7,0,33.1,22.8,69.6,26.3,108.2,0,13.5-8.3,32.3-8.3,45.8,1l35.4,25c9.4,6.2,21.9,4.2,28.1-5.2A20.31,20.31,0,0,0,480.79,340.28Z"/><path class="cls-1" d="M38.59,37.58c0,1,54.1,33.3,59.3,88.4,1.5,18.7,18.3,18.6,20.9,18.7,6.1.4,20.3-4.1,21.8-18.7,5.2-53,58.3-86.4,59.3-87.4,10.4-6.2,13.5-18.7,7.3-28.1C201,.08,188.49-3,179.09,3.18c-2.2,1.5-36.9,22.3-60.1,60.6-23-38.2-57.4-59.1-59.6-60.5-9.4-6.2-21.9-3.1-28.1,6.2C25,19.88,28.19,32.38,38.59,37.58Z"/><path class="cls-1" d="M252.89,64.68c1,1,85.3,52,92.6,137.3,2,20.1,22.4,18.7,22.9,18.7a20.27,20.27,0,0,0,19.8-17.7c7.3-84.3,91.6-136.3,92.6-137.3,10.4-6.2,13.5-18.7,7.3-28.1-6.2-10.4-18.7-13.5-28.1-7.3-3.2,1.6-61.5,37.1-93.1,101.1-31.6-63.9-89.9-99.5-93.1-101.1-9.4-5.2-21.9-2.1-28.1,7.3A18.45,18.45,0,0,0,252.89,64.68Z"/></g></g></svg>