<svg xmlns="http://www.w3.org/2000/svg" viewBox="0 0 488.4 488.5"><defs><style>.cls-1{fill:#fff;}</style></defs><title>Rain</title><g id="Layer_2" data-name="Layer 2"><g id="Layer_1-2" data-name="Layer 1"><path class="cls-1" d="M284.8,43.7C261.9,15.6,227.6,0,191.3,0A121.38,121.38,0,0,0,70.7,107.1C29.1,119.6,0,158,0,201.7c0,54,44.7,98.7,99.8,98.7h6.4c-11.8,21.5-19.9,42.9-19.9,61.3,0,69.6,57.2,126.8,127.8,126.8s127.8-57.2,127.8-126.8c0-18.5-7.9-39.9-19.6-61.3h66.3c55.1,0,99.8-44.7,99.8-98.7,0-50.9-39.5-93.5-89.4-98.7C381.3,56.6,339.8,31.6,284.8,43.7ZM214.2,447.94c-47.8,0-87.3-38.5-87.3-86.3,0-33.3,48.8-95.6,87.3-137.2,38.5,41.6,87.3,103.9,87.3,137.2C301.5,409.54,262,447.94,214.2,447.94ZM388.8,258.4h-93c-28.6-39.2-60.9-71.8-67-78a20.12,20.12,0,0,0-29.1,0c-6.1,6.7-38,39.2-66.4,78H100c-33.3,0-59.2-26-59.2-58.2,0-29.1,21.8-54,50.9-58.2,10.4-1,17.7-10.4,17.7-20.8,0-44.7,37.4-81.1,82.1-81.1,29.1,0,54,13.5,69.6,37.4,5.2,8.3,16.6,11.4,26,7.3,34.1-12.8,69.4,1,76.9,39.5A19.37,19.37,0,0,0,383.7,142c44.8,1,60,25.4,64.4,58.2C448,232.4,421,258.4,388.8,258.4Z"/></g></g></svg>