<svg xmlns="http://www.w3.org/2000/svg" viewBox="0 0 490.46 490.27"><defs><style>.cls-1{fill:#fff;}</style></defs><title>Tropical</title><g id="Layer_2" data-name="Layer 2"><g id="Layer_1-2" data-name="Layer 1"><path class="cls-1" d="M395.66,328.08c52.1,0,94.8-42.7,94.8-95.9s-42.7-95.9-94.8-95.9-94.8,42.7-94.8,95.9S343.56,328.08,395.66,328.08Zm0-150.1c30.2,0,54.2,24,54.2,55.2,0,30.2-24,55.2-54.2,55.2s-54.2-25-54.2-55.2S365.46,178,395.66,178Z"/><path class="cls-1" d="M472.76,450l-30.2-13.5c-21.9-9.4-52.1-10.4-74-1-28.6,15.8-56.3,0-56.3,0-21.9-9.4-49-9.4-70.9,0-22.8,10.8-47.9-3.1-47.9-3.1-21.9-9.4-49-9.4-70.9,0l-19.8,8c2.7-142.3,50.2-236.3,74.5-275.3,12.5,18.7,26.6,46.5,26.6,73.4a20.85,20.85,0,0,0,20.8,20.8,19.71,19.71,0,0,0,19.8-21.9c0-41.9-22.7-80.8-37.8-102.1,14.8-11.8,41.3-26.3,70.2-9.4a20.53,20.53,0,0,0,20.8-35.4c-40.7-22.9-79.2-11.5-106.3,6.3-10.4-34.4-33.3-83.4-81.3-95.9-10.4-3.1-21.9,2.1-25,13.5s3.1,22.9,14.6,26c26.9,7.1,43.2,38.2,51.9,64.6-71.7-6.2-142.1,61-145.7,64.7-7.3,8.3-8.3,20.8,0,29.2a22.2,22.2,0,0,0,29.2,0c17.7-16.7,65.7-53.2,107.4-53.2-28.2,45.9-78.2,148-79.3,302.59H21.56A20.42,20.42,0,0,0,.76,468.78c0,11.5,9.4,20.8,20.8,21.49h62.5c19-.69,31.7-12,54.2-19.49,11-5.3,30.1-5.8,47.9,3.1,21.9,9.4,49,9.4,70.9,0,0,0,19.6-10.7,49,3.1,21.9,9.4,49,9.4,70.9,0,29.5-13.4,49-3.1,49-3.1l30.2,13.6c10.4,4.2,22.9,0,27.1-10.4S483.26,454.18,472.76,450Z"/></g></g></svg>