<svg xmlns="http://www.w3.org/2000/svg" viewBox="0 0 362.7 489.65"><defs><style>.cls-1{fill:#fff;}</style></defs><title>water</title><g id="Layer_2" data-name="Layer 2"><g id="Layer_1-2" data-name="Layer 1"><path class="cls-1" d="M181.4,489.65C81.3,489.65,0,405.25,0,301,0,203,149.1,26.85,165.7,7.05c7.3-9.4,22.9-9.4,31.3,0,16.7,19.8,165.7,196,165.7,293.9C362.8,405.25,281.5,489.65,181.4,489.65Zm0-437.8c-50,61.5-140.7,185.5-140.7,249.1,0,81.3,62.5,148,140.7,148,77.1,0,140.7-66.7,140.7-148C322.1,237.45,231.4,113.35,181.4,51.85Z"/><path class="cls-1" d="M198.1,393.75a21.17,21.17,0,0,1,1-29.2h0c2.1-2.1,53.2-51.1,21.9-98-6.3-9.4-3.1-21.9,6.3-28.1s21.9-3.1,28.1,6.3c39.6,60.5-1,125.1-28.1,150.1C217.2,402.15,202.2,398,198.1,393.75Z"/></g></g></svg>